<svg width="45" height="70" viewBox="0 0 45 70" fill="none" xmlns="http://www.w3.org/2000/svg">
<path d="M1.01355 51.6655H3.34463L3.75004 60.9914V66.0598H1.01355V51.6655ZM2.02706 51.6655H4.56085L7.90544 62.0051L11.1487 51.6655H13.3784L8.8176 66.0598H6.79058L2.02706 51.6655ZM12.2635 51.6655H14.5946V66.0598H11.8581V60.9914L12.2635 51.6655Z" fill="white"/>
<path d="M21.9933 52.9833H25.0338C25.7433 52.9833 26.4528 53.0846 27.0609 53.3887C27.669 53.6928 28.2771 54.0983 28.7838 54.6052C29.2906 55.112 29.5946 55.7202 29.8987 56.5312C30.2028 57.2407 30.3041 58.0517 30.3041 58.964C30.3041 59.8763 30.2028 60.6873 29.8987 61.3969C29.5946 62.1064 29.2906 62.7146 28.7838 63.2215C28.2771 63.7283 27.7703 64.1338 27.0609 64.4379C26.3514 64.742 25.7433 64.8434 25.0338 64.8434H21.9933C21.2838 64.8434 20.5744 64.742 19.9663 64.4379C19.3582 64.1338 18.75 63.7283 18.2433 63.2215C17.7365 62.7146 17.4325 62.1064 17.1284 61.3969C16.8244 60.6873 16.723 59.8763 16.723 58.964C16.723 58.0517 16.8244 57.2407 17.1284 56.5312C17.4325 55.8216 17.7365 55.2134 18.2433 54.6052C18.75 54.0983 19.2568 53.6928 19.9663 53.3887C20.6757 53.0846 21.2838 52.9833 21.9933 52.9833ZM21.9933 55.2134C21.4865 55.2134 20.9798 55.3147 20.5744 55.6189C20.169 55.923 19.8649 56.3284 19.6622 56.9366C19.4595 57.5448 19.3582 58.1531 19.3582 58.964C19.3582 59.5722 19.4595 60.0791 19.5609 60.4845C19.6622 60.89 19.8649 61.2955 20.0676 61.5996C20.2703 61.9037 20.5744 62.1064 20.8784 62.3092C21.1825 62.5119 21.5879 62.5119 21.9933 62.5119H25.0338C25.5406 62.5119 26.0473 62.4105 26.4528 62.1064C26.8582 61.8023 27.1622 61.3969 27.3649 60.89C27.5676 60.3832 27.669 59.6736 27.669 58.964C27.669 58.3558 27.5676 57.849 27.4663 57.3421C27.3649 56.8353 27.1622 56.5312 26.9595 56.2271C26.7568 55.923 26.4528 55.7202 26.1487 55.5175C25.8446 55.3147 25.4392 55.3147 25.0338 55.3147H21.9933V55.2134ZM24.9325 51.0573V66.668H22.2973V51.0573H24.9325Z" fill="white"/>
<path d="M32.3311 66.0598V51.6655H35.1689V63.8297H40.0338V51.6655H42.8716V66.0598H32.3311ZM44.5946 63.8297L44.3919 69.5063H41.7567V66.0598H40.6419V63.8297H44.5946Z" fill="white"/>
<path d="M42.973 25.5124H40.8446C41.1486 24.1946 41.25 22.8768 41.25 21.559C41.25 10.2058 32.027 0.879883 20.5743 0.879883C9.12162 0.879883 0 10.1044 0 21.4577C0 32.8109 9.22297 42.1368 20.6757 42.1368C23.5135 42.1368 26.1486 41.5286 28.6824 40.5149V45.1779C28.6824 46.2929 29.5946 47.2053 30.7095 47.2053H43.0743C44.1892 47.2053 45.1013 46.2929 45.1013 45.1779V27.5398C45 26.3234 44.0878 25.5124 42.973 25.5124ZM26.7568 31.0877C26.0473 30.6822 25.1351 30.074 25.1351 29.1617C25.1351 27.6412 25.2365 27.2357 25.2365 27.2357C25.2365 27.2357 26.6554 26.1206 27.8716 22.9782C28.3784 22.9782 29.0878 22.0659 29.3919 20.9508C29.6959 19.7344 29.3919 18.4166 28.9865 18.2139C29.1892 16.6934 29.3919 15.1728 29.3919 13.1455C29.3919 8.38114 25.8446 5.74556 20.8784 5.74556C16.4189 5.74556 12.3649 8.38114 12.3649 13.1455C12.3649 15.1728 12.4662 16.592 12.7703 18.1125C12.2635 18.2139 12.0608 19.633 12.3649 20.8495C12.6689 22.0659 13.4797 22.9782 13.9865 22.8768C15.2027 25.9179 16.6216 27.1343 16.6216 27.1343C16.6216 27.1343 16.723 27.5398 16.723 29.0603C16.723 29.9726 15.9122 30.5808 15.2027 30.9863C11.0473 31.7973 8.41216 33.115 7.2973 33.926C4.25676 30.6822 2.33108 26.222 2.33108 21.4577C2.33108 11.3208 10.5405 3.00861 20.777 3.00861C30.9122 3.00861 39.223 11.2195 39.223 21.4577C39.223 22.7755 39.0203 24.0933 38.8176 25.411H30.8108C29.6959 25.411 28.7838 26.3234 28.7838 27.4384V31.5945C27.973 31.3918 27.3649 31.2904 26.7568 31.0877ZM43.4797 45.0765C43.4797 45.2793 43.277 45.482 43.0743 45.482H30.6081C30.4054 45.482 30.2027 45.2793 30.2027 45.0765V27.4384C30.2027 27.2357 30.4054 27.0329 30.6081 27.0329H42.973C43.1757 27.0329 43.3784 27.2357 43.3784 27.4384V45.0765H43.4797Z" fill="white"/>
<path d="M41.1486 33.3178H32.4324C32.027 33.3178 31.6216 33.6219 31.6216 34.1287C31.6216 34.6356 31.9256 34.9397 32.4324 34.9397H41.1486C41.554 34.9397 41.9594 34.6356 41.9594 34.1287C41.9594 33.6219 41.554 33.3178 41.1486 33.3178Z" fill="white"/>
<path d="M41.1486 29.1617H32.4324C32.027 29.1617 31.6216 29.4658 31.6216 29.9726C31.6216 30.4795 31.9256 30.7836 32.4324 30.7836H41.1486C41.554 30.7836 41.9594 30.4795 41.9594 29.9726C41.9594 29.4658 41.554 29.1617 41.1486 29.1617Z" fill="white"/>
<path d="M41.1486 37.4739H32.4324C32.027 37.4739 31.6216 37.778 31.6216 38.2848C31.6216 38.7917 31.9256 39.0958 32.4324 39.0958H41.1486C41.554 39.0958 41.9594 38.7917 41.9594 38.2848C41.9594 37.778 41.554 37.4739 41.1486 37.4739Z" fill="white"/>
<path d="M41.1486 41.63H32.4324C32.027 41.63 31.6216 41.9341 31.6216 42.441C31.6216 42.9478 31.9256 43.2519 32.4324 43.2519H41.1486C41.554 43.2519 41.9594 42.9478 41.9594 42.441C41.9594 41.9341 41.554 41.63 41.1486 41.63Z" fill="white"/>
</svg>
