<svg width="29" height="25" viewBox="0 0 29 25" fill="none" xmlns="http://www.w3.org/2000/svg">
<path d="M20.277 17.2225C20.8851 16.4116 21.0878 15.1951 21.0878 13.4719V12.1541C21.0878 11.1404 20.9865 10.3295 20.7838 9.82261C20.5811 9.2144 20.277 8.70752 19.8716 8.20068C19.3648 7.79521 18.8581 7.4911 18.25 7.187C17.6419 6.98426 16.8311 6.8829 15.9189 6.8829H0.716187V24.3183H4.97294V18.6416H12.8783L16.6283 24.3183H21.4932L17.3378 18.6416C18.9594 18.4389 19.6689 18.0334 20.277 17.2225ZM16.7297 13.5732C16.7297 14.08 16.6283 14.3841 16.4256 14.5869C16.2229 14.7896 15.8175 14.891 15.2094 14.891H5.07429V10.8363H15.2094C15.8175 10.8363 16.2229 10.9377 16.4256 11.1404C16.6283 11.3431 16.7297 11.6472 16.7297 12.1541V13.5732Z" fill="white"/>
<path d="M24.9392 0.395355C23.1149 0.395355 21.5946 1.91593 21.5946 3.74056C21.5946 5.5652 23.1149 7.08571 24.9392 7.08571C26.7635 7.08571 28.2838 5.5652 28.2838 3.74056C28.1824 1.81456 26.7635 0.395355 24.9392 0.395355Z" fill="white"/>
</svg>
