<svg width="17" height="27" viewBox="0 0 17 27" fill="none" xmlns="http://www.w3.org/2000/svg">
<path d="M8.50001 13.7562C12.25 13.7562 15.2906 10.7152 15.2906 6.96452C15.2906 3.21389 12.25 0.172821 8.50001 0.172821C4.75001 0.172821 1.70947 3.21389 1.70947 6.96452C1.70947 10.7152 4.75001 13.7562 8.50001 13.7562ZM8.50001 4.12622C10.0203 4.12622 11.3379 5.34263 11.3379 6.96452C11.3379 8.48505 10.1216 9.80283 8.50001 9.80283C6.97974 9.80283 5.66217 8.58642 5.66217 6.96452C5.66217 5.34263 6.87839 4.12622 8.50001 4.12622Z" fill="white"/>
<path d="M15.8987 14.8713C15.2906 13.959 14.0743 13.6549 13.1622 14.2631C10.4257 15.9864 6.77705 15.9864 3.93921 14.2631C3.02705 13.6549 1.81083 13.959 1.20273 14.8713C0.594618 15.7836 0.898673 17 1.81083 17.6082C3.02705 18.4192 4.34462 18.926 5.76354 19.2301L1.91219 23.0822C1.10137 23.8931 1.10137 25.1095 1.91219 25.9205C2.31759 26.3259 2.82435 26.5287 3.3311 26.5287C3.83786 26.5287 4.34462 26.3259 4.75002 25.9205L8.50002 22.1698L12.25 25.9205C13.0608 26.7314 14.2771 26.7314 15.0879 25.9205C15.8987 25.1095 15.8987 23.8931 15.0879 23.0822L11.2365 19.2301C12.6554 18.926 13.973 18.3178 15.1892 17.6082C16.1014 17.1014 16.4054 15.7836 15.8987 14.8713Z" fill="white"/>
</svg>
