<svg width="33" height="36" viewBox="0 0 33 36" fill="none" xmlns="http://www.w3.org/2000/svg">
<path d="M32.6148 32.4947L24.6081 24.4866C26.8378 21.9524 28.2567 18.7086 28.2567 15.0593C28.2567 7.25393 21.8716 0.969086 14.1689 0.969086C6.46619 0.969086 0.0810547 7.35529 0.0810547 15.0593C0.0810547 22.7633 6.46619 29.1495 14.1689 29.1495C17.2094 29.1495 20.0473 28.1358 22.3784 26.514L30.4865 34.6234C30.7905 34.9275 31.1959 35.0289 31.6013 35.0289C32.0067 35.0289 32.4121 34.9275 32.7162 34.6234C33.1216 34.0152 33.1216 33.0015 32.6148 32.4947ZM3.02024 14.9579C3.02024 8.87581 7.98646 3.90877 14.0675 3.90877C20.1486 3.90877 25.1148 8.87581 25.1148 14.9579C25.1148 21.04 20.1486 26.0071 14.0675 26.0071C7.98646 26.0071 3.02024 21.04 3.02024 14.9579Z" fill="white"/>
</svg>
