<svg width="25" height="21" viewBox="0 0 25 21" fill="none" xmlns="http://www.w3.org/2000/svg">
<path d="M24.0541 2.56361C23.75 5.90877 22.3311 14.1196 21.6217 17.8703C21.3176 19.4921 20.7095 19.999 20.2027 20.1004C18.9865 20.2017 18.0744 19.2894 16.8581 18.4785C15.0338 17.262 13.919 16.4511 12.0946 15.336C9.96625 13.9169 11.3852 13.2073 12.6014 11.9909C12.9054 11.6868 18.3784 6.71972 18.4798 6.21288C18.4798 6.11151 18.4798 5.90878 18.3784 5.80741C18.2771 5.70604 18.0744 5.70604 17.973 5.80741C17.7703 5.80741 14.8311 7.83477 8.95274 11.7881C8.14193 12.3964 7.33112 12.7004 6.62166 12.5991C5.9122 12.5991 4.39193 12.1936 3.27707 11.7881C1.9595 11.3827 0.844634 11.0786 0.945985 10.369C0.945985 9.96352 1.55409 9.55803 2.56761 9.15256C8.75004 6.41561 12.9054 4.69236 14.9325 3.78004C20.8108 1.3472 22.0271 0.941731 22.8379 0.840363C23.0406 0.840363 23.446 0.840344 23.6487 1.04308C23.8514 1.24582 23.9527 1.44856 23.9527 1.6513C24.0541 1.85403 24.0541 2.2595 24.0541 2.56361Z" fill="white"/>
</svg>
