<svg width="27" height="19" viewBox="0 0 27 19" fill="none" xmlns="http://www.w3.org/2000/svg">
<path d="M26.2702 2.9767C25.9662 1.86164 25.054 0.94931 23.9391 0.645204C21.8108 0.0369935 13.5 0.0369873 13.5 0.0369873C13.5 0.0369873 5.0878 0.0369935 3.06077 0.645204C1.94591 0.94931 1.03374 1.86164 0.72969 2.9767C0.121582 5.10544 0.121582 9.46427 0.121582 9.46427C0.121582 9.46427 0.121582 13.8231 0.72969 15.9518C1.03374 17.0669 1.94591 17.9792 3.06077 18.2833C5.18915 18.8915 13.5 18.8915 13.5 18.8915C13.5 18.8915 21.9121 18.8915 23.9391 18.2833C25.054 17.9792 25.9662 17.0669 26.2702 15.9518C26.8783 13.8231 26.8783 9.46427 26.8783 9.46427C26.8783 9.46427 26.8783 5.10544 26.2702 2.9767ZM10.8648 13.4176V5.40953L17.8581 9.46427L10.8648 13.4176Z" fill="white"/>
</svg>
