<svg width="34" height="42" viewBox="0 0 34 42" fill="none" xmlns="http://www.w3.org/2000/svg">
<path d="M1.6 37.7C1 37.7 0.5 37.2 0.5 36.6V7.6C0.5 3.8 3.6 0.700001 7.4 0.700001H22.1C22.7 0.700001 23.2 1.2 23.2 1.8C23.2 2.4 22.7 2.9 22.1 2.9H7.5C4.9 2.9 2.7 5 2.7 7.7V36.5C2.7 36.6 2.7 36.7 2.7 36.7C2.6 37.2 2.2 37.7 1.6 37.7Z" fill="white"/>
<path d="M32.4 34.6C31.8 34.6 31.3 34.1 31.3 33.5V2.7H28.2C27.6 2.7 27.1 2.2 27.1 1.6C27.1 1 27.6 0.5 28.2 0.5H32.3C32.9 0.5 33.4 1 33.4 1.6V33.5C33.4 34.1 32.9 34.6 32.4 34.6Z" fill="white"/>
<path d="M32.4 41.8H5.20001C2.70001 41.8 0.600006 39.7 0.600006 37.2C0.600006 37 0.600006 36.8 0.700006 36.5C0.700006 36.5 0.700006 36.5 0.700006 36.4C0.900006 35.4 1.30001 34.5 2.00001 33.9C2.90001 33 4.10001 32.6 5.30001 32.6H32.5C33.1 32.6 33.6 33.1 33.6 33.7C33.6 34.3 33.1 34.8 32.5 34.8H5.20001C4.50001 34.8 3.90001 35 3.40001 35.5C3.00001 35.9 2.70001 36.4 2.70001 37C2.70001 37.1 2.70001 37.2 2.70001 37.3C2.70001 38.7 3.90001 39.8 5.20001 39.8H32.4C33 39.8 33.5 40.3 33.5 40.9C33.4 41.3 32.9 41.8 32.4 41.8Z" fill="white"/>
<path d="M30.4 41.2C29.8 41.2 29.3 40.8 29.3 40.3V34.1C29.3 33.6 29.8 33.2 30.4 33.2C31 33.2 31.5 33.6 31.5 34.1V40.3C31.4 40.7 30.9 41.2 30.4 41.2Z" fill="white"/>
<path d="M7.80001 34.6C7.20001 34.6 6.70001 34.1 6.70001 33.5V1.8C6.70001 1.2 7.20001 0.700001 7.80001 0.700001C8.40001 0.700001 8.90001 1.2 8.90001 1.8V33.6C8.80001 34.1 8.30001 34.6 7.80001 34.6Z" fill="white"/>
<path d="M28.3 11C28.1 11 27.8 10.9 27.6 10.7L25.2 8.4L22.8 10.8C22.5 11.1 22.1 11.2 21.6 11C21.2 10.8 20.9 10.5 20.9 10V1.8C20.9 1.2 21.4 0.700001 22 0.700001H28.2C28.8 0.700001 29.3 1.2 29.3 1.8V10C29.3 10.4 29.1 10.8 28.6 11C28.6 11 28.4 11 28.3 11ZM25.2 5.9C25.4 5.9 25.7 6 25.9 6.2L27.2 7.5V2.8H23.1V7.5L24.4 6.2C24.7 6 25 5.9 25.2 5.9Z" fill="white"/>
</svg>
