<svg width="34" height="42" viewBox="0 0 34 42" fill="none" xmlns="http://www.w3.org/2000/svg">
<path d="M32.1998 34.9C32.6998 34.9 33.0998 34.5 33.0998 34C33.0998 6.50002 33.0998 7.60002 33.0998 7.50002C33.0998 7.40002 32.9998 7.20002 32.8998 7.10002C26.3998 0.700025 26.8998 1.10002 26.6998 1.00002C26.4998 0.900024 26.3998 0.900024 26.1998 0.900024H8.19981C7.69981 0.900024 7.2998 1.30002 7.2998 1.80002V5.20002H4.6998C4.1998 5.20002 3.7998 5.60002 3.7998 6.10002V7.70002H1.1998C0.699804 7.70002 0.299805 8.10002 0.299805 8.60002V40.9C0.299805 41.4 0.699804 41.8 1.1998 41.8H25.1998C25.6998 41.8 26.0998 41.4 26.0998 40.9V38.3H28.6998C29.1998 38.3 29.5998 37.9 29.5998 37.4V34.9H32.1998ZM27.0998 3.80002L30.1998 6.90002H27.0998V3.80002ZM8.9998 2.60002H25.2998V7.70002C25.2998 8.20002 25.6998 8.60002 26.1998 8.60002H31.2998V33.3H8.9998V2.60002ZM24.4998 40H2.1998V9.40002H3.8998V37.5C3.8998 38 4.2998 38.4 4.7998 38.4H24.4998V40ZM27.8998 36.6H5.5998V6.90002H7.2998V34.1C7.2998 34.6 7.69981 35 8.19981 35H27.8998V36.6Z" fill="white" stroke="white" stroke-width="0.1871" stroke-miterlimit="10"/>
<path d="M26.4998 11H13.4998C12.9998 11 12.5998 11.4 12.5998 11.9C12.5998 12.4 12.9998 12.8 13.4998 12.8H26.4998C26.9998 12.8 27.3998 12.4 27.3998 11.9C27.2998 11.3 26.8998 11 26.4998 11Z" fill="white" stroke="white" stroke-width="0.1871" stroke-miterlimit="10"/>
<path d="M26.4998 15.7H13.4998C12.9998 15.7 12.5998 16.1 12.5998 16.6C12.5998 17.1 12.9998 17.5 13.4998 17.5H26.4998C26.9998 17.5 27.3998 17.1 27.3998 16.6C27.3998 16.1 26.8998 15.7 26.4998 15.7Z" fill="white" stroke="white" stroke-width="0.1871" stroke-miterlimit="10"/>
<path d="M26.4998 20.3H13.4998C12.9998 20.3 12.5998 20.7 12.5998 21.2C12.5998 21.7 12.9998 22.1 13.4998 22.1H26.4998C26.9998 22.1 27.3998 21.7 27.3998 21.2C27.3998 20.7 26.8998 20.3 26.4998 20.3Z" fill="white" stroke="white" stroke-width="0.1871" stroke-miterlimit="10"/>
<path d="M26.4998 24.8H13.4998C12.9998 24.8 12.5998 25.2 12.5998 25.7C12.5998 26.2 12.9998 26.6 13.4998 26.6H26.4998C26.9998 26.6 27.3998 26.2 27.3998 25.7C27.3998 25.2 26.8998 24.8 26.4998 24.8Z" fill="white" stroke="white" stroke-width="0.1871" stroke-miterlimit="10"/>
<path d="M26.4998 29H13.4998C12.9998 29 12.5998 29.4 12.5998 29.9C12.5998 30.4 12.9998 30.8 13.4998 30.8H26.4998C26.9998 30.8 27.3998 30.4 27.3998 29.9C27.3998 29.4 26.8998 29 26.4998 29Z" fill="white" stroke="white" stroke-width="0.1871" stroke-miterlimit="10"/>
</svg>
